<svg xmlns="http://www.w3.org/2000/svg" viewBox="0 0 230 230">
  <path fill="#546E7A" d="M33.484 0h159.344v216H33.484z"/>
  <path fill="#37474F" d="M110.949 126.334h-59.81c-.552 0-1-.448-1-1v-61h61.81v61c0 .552-.448 1-1 1zm-1 63h-57.81c-1.105 0-2-.895-2-2v-59c0-.552.448-1 1-1h60.81v60c0 1.104-.896 2-2 2zm63-63h-57.81c-1.105 0-2-.895-2-2v-58c0-1.105.895-2 2-2h59.81v60c0 1.104-.896 2-2 2z"/>
  <path fill="#2979FF" d="M50.474 23.333h125.365v17.333H50.474z"/>
  <path fill="#F7F7F7" d="M96.757 97.334H67.423c-1.105 0-2-.895-2-2s.895-2 2-2h29.333c1.105 0 2 .895 2 2 .001 1.104-.895 2-1.999 2z"/>
  <g fill="#F7F7F7">
    <path d="M96.757 158.334H67.423c-1.105 0-2-.895-2-2s.895-2 2-2h29.333c1.105 0 2 .895 2 2 .001 1.104-.895 2-1.999 2z"/>
    <path d="M84.09 141.667V171c0 1.105-.895 2-2 2s-2-.895-2-2v-29.333c0-1.105.895-2 2-2s2 .895 2 2z"/>
  </g>
  <g fill="#F7F7F7">
    <path d="M152.781 105.282L132.426 84.16c-.766-.795-.743-2.061.052-2.828.795-.766 2.061-.743 2.828.052l20.355 21.122c.766.795.743 2.061-.052 2.828-.796.767-2.062.744-2.828-.052z"/>
    <path d="M155.992 84.596l-21.122 20.355c-.795.766-2.061.743-2.828-.052-.766-.795-.743-2.061.052-2.828l21.122-20.355c.795-.766 2.061-.743 2.828.052.767.796.744 2.062-.052 2.828z"/>
  </g>
  <path fill="#1DE9B6" d="M105.202 114.027h115.113V229.14H105.202z"/>
  <path fill="#F7F7F7" d="M185.163 166.458h-44.809c-1.105 0-2-.895-2-2v-1.857c0-1.105.895-2 2-2h44.809c1.105 0 2 .895 2 2v1.857c0 1.105-.896 2-2 2zm0 16.107h-44.809c-1.105 0-2-.895-2-2v-1.857c0-1.105.895-2 2-2h44.809c1.105 0 2 .895 2 2v1.857c0 1.105-.896 2-2 2z"/>
</svg>
